<svg width="115" height="48" viewBox="0 0 115 48" fill="none" xmlns="http://www.w3.org/2000/svg">
<rect width="48" height="48" fill="#292621"/>
<path d="M11.6172 33V15.9375H15.8359C16.5703 15.9375 17.2617 16.0234 17.9102 16.1953C18.5586 16.3594 19.1484 16.5898 19.6797 16.8867C20.2578 17.1914 20.7695 17.5742 21.2148 18.0352C21.668 18.4961 22.0469 19.0117 22.3516 19.582C22.6641 20.1758 22.9062 20.8281 23.0781 21.5391C23.25 22.25 23.3359 23.0078 23.3359 23.8125V25.1484C23.3359 25.9219 23.2539 26.6562 23.0898 27.3516C22.9336 28.0391 22.707 28.668 22.4102 29.2383C22.1211 29.793 21.7695 30.2969 21.3555 30.75C20.9492 31.2031 20.4961 31.5898 19.9961 31.9102C19.4336 32.2617 18.8086 32.5312 18.1211 32.7188C17.4414 32.9062 16.7109 33 15.9297 33H11.6172ZM14.4648 18.2344V30.7148H15.9297C16.4297 30.7148 16.8867 30.6562 17.3008 30.5391C17.7227 30.4141 18.1016 30.2383 18.4375 30.0117C18.7812 29.7773 19.0859 29.4844 19.3516 29.1328C19.625 28.7734 19.8477 28.3633 20.0195 27.9023C20.168 27.5117 20.2812 27.0859 20.3594 26.625C20.4375 26.1641 20.4766 25.6719 20.4766 25.1484V23.7891C20.4766 23.2734 20.4375 22.7852 20.3594 22.3242C20.2812 21.8633 20.168 21.4375 20.0195 21.0469C19.832 20.5703 19.582 20.1406 19.2695 19.7578C18.957 19.3672 18.5859 19.0508 18.1562 18.8086C17.8438 18.6289 17.4922 18.4922 17.1016 18.3984C16.7109 18.2969 16.2891 18.2422 15.8359 18.2344H14.4648ZM26.1367 33V15.9375H31.5977C32.4258 15.9375 33.2031 16.0312 33.9297 16.2188C34.6562 16.3984 35.2852 16.6758 35.8164 17.0508C36.3477 17.4258 36.7617 17.9062 37.0586 18.4922C37.3633 19.0703 37.5156 19.7578 37.5156 20.5547C37.5078 21.0391 37.4219 21.4922 37.2578 21.9141C37.1016 22.3281 36.875 22.6953 36.5781 23.0156C36.3672 23.25 36.1289 23.457 35.8633 23.6367C35.6055 23.8086 35.3047 23.9648 34.9609 24.1055V24.1289C35.4688 24.2617 35.9023 24.457 36.2617 24.7148C36.6211 24.9648 36.9219 25.25 37.1641 25.5703C37.4141 25.9141 37.6016 26.2969 37.7266 26.7188C37.8594 27.1328 37.9258 27.5703 37.9258 28.0312C37.9336 28.8438 37.7891 29.5586 37.4922 30.1758C37.1953 30.793 36.7852 31.3086 36.2617 31.7227C35.7383 32.1445 35.1133 32.4648 34.3867 32.6836C33.668 32.8945 32.8867 33 32.043 33H26.1367ZM28.9727 25.2891V30.6797H32.0664C32.5117 30.6797 32.918 30.6172 33.2852 30.4922C33.6523 30.3672 33.9648 30.1953 34.2227 29.9766C34.5039 29.75 34.7188 29.4727 34.8672 29.1445C35.0234 28.8086 35.1016 28.4375 35.1016 28.0312C35.1016 27.6016 35.0391 27.2227 34.9141 26.8945C34.7891 26.5586 34.6016 26.2734 34.3516 26.0391C34.1016 25.8047 33.7969 25.625 33.4375 25.5C33.0781 25.3672 32.668 25.2969 32.207 25.2891H28.9727ZM28.9727 23.1445H31.6562C32.1172 23.1367 32.5391 23.0742 32.9219 22.957C33.3125 22.8398 33.6406 22.668 33.9062 22.4414C34.1484 22.2383 34.3398 21.9922 34.4805 21.7031C34.6211 21.4141 34.6914 21.082 34.6914 20.707C34.6914 20.3086 34.625 19.9648 34.4922 19.6758C34.3672 19.3789 34.1875 19.1367 33.9531 18.9492C33.6875 18.7148 33.3555 18.5469 32.957 18.4453C32.5586 18.3359 32.1172 18.2773 31.6328 18.2695H28.9727V23.1445ZM66.5078 27.75C66.4297 28.5781 66.2344 29.332 65.9219 30.0117C65.6094 30.6836 65.1992 31.2578 64.6914 31.7344C64.1758 32.2188 63.5625 32.5938 62.8516 32.8594C62.1484 33.1172 61.3672 33.2461 60.5078 33.2461C59.8047 33.2461 59.1562 33.1523 58.5625 32.9648C57.9766 32.7695 57.4531 32.4961 56.9922 32.1445C56.5469 31.8164 56.1562 31.4219 55.8203 30.9609C55.4922 30.4922 55.2148 29.9805 54.9883 29.4258C54.7617 28.8789 54.5898 28.2852 54.4727 27.6445C54.3633 27.0039 54.3086 26.3359 54.3086 25.6406V23.3086C54.3086 22.6445 54.3633 22.0039 54.4727 21.3867C54.582 20.7695 54.7461 20.1875 54.9648 19.6406C55.1992 19.0312 55.5 18.4805 55.8672 17.9883C56.2422 17.4883 56.6719 17.0625 57.1562 16.7109C57.6172 16.3906 58.125 16.1406 58.6797 15.9609C59.2422 15.7812 59.8555 15.6914 60.5195 15.6914C61.418 15.6914 62.2188 15.8242 62.9219 16.0898C63.6328 16.3555 64.2383 16.7305 64.7383 17.2148C65.2461 17.707 65.6445 18.3008 65.9336 18.9961C66.2305 19.6914 66.4219 20.4648 66.5078 21.3164H63.6953C63.6484 20.8086 63.5508 20.3516 63.4023 19.9453C63.2617 19.5312 63.0664 19.1797 62.8164 18.8906C62.5586 18.6016 62.2422 18.3828 61.8672 18.2344C61.4922 18.0781 61.043 18 60.5195 18C60.1523 18 59.8203 18.0508 59.5234 18.1523C59.2344 18.2539 58.9766 18.3984 58.75 18.5859C58.4375 18.8125 58.1758 19.1094 57.9648 19.4766C57.7617 19.8359 57.5938 20.2383 57.4609 20.6836C57.3594 21.0742 57.2812 21.4922 57.2266 21.9375C57.1797 22.375 57.1562 22.8242 57.1562 23.2852V25.6406C57.1562 26.2109 57.1875 26.7461 57.25 27.2461C57.3203 27.7461 57.4258 28.2031 57.5664 28.6172C57.6758 28.9609 57.8125 29.2734 57.9766 29.5547C58.1484 29.8359 58.3516 30.0781 58.5859 30.2812C58.8281 30.5 59.1055 30.668 59.418 30.7852C59.7383 30.8945 60.1016 30.9492 60.5078 30.9492C60.9922 30.9492 61.4219 30.8789 61.7969 30.7383C62.1719 30.5977 62.4922 30.3906 62.7578 30.1172C63.0156 29.8516 63.2227 29.5195 63.3789 29.1211C63.5352 28.7227 63.6367 28.2656 63.6836 27.75H66.5078ZM72.2734 22.125C72.4375 21.875 72.6211 21.6445 72.8242 21.4336C73.0273 21.2227 73.2422 21.0391 73.4688 20.8828C73.8203 20.625 74.207 20.4297 74.6289 20.2969C75.0586 20.1562 75.5117 20.0859 75.9883 20.0859C76.6523 20.0859 77.2578 20.1836 77.8047 20.3789C78.3594 20.5742 78.832 20.8789 79.2227 21.293C79.6133 21.707 79.9141 22.2383 80.125 22.8867C80.3438 23.5273 80.4531 24.2969 80.4531 25.1953V33H77.6523V25.1719C77.6523 24.7031 77.5938 24.293 77.4766 23.9414C77.3672 23.5898 77.2031 23.3047 76.9844 23.0859C76.7578 22.8516 76.4805 22.6797 76.1523 22.5703C75.832 22.4531 75.4609 22.3945 75.0391 22.3945C74.7109 22.3945 74.3984 22.4336 74.1016 22.5117C73.8125 22.5898 73.5469 22.7031 73.3047 22.8516C73.1016 22.9688 72.9102 23.1094 72.7305 23.2734C72.5586 23.4375 72.4062 23.6211 72.2734 23.8242V33H69.4727V15H72.2734V22.125ZM91.9844 33C91.8984 32.8438 91.8281 32.6562 91.7734 32.4375C91.7266 32.2109 91.6836 31.9766 91.6445 31.7344C91.4492 31.9375 91.2266 32.1328 90.9766 32.3203C90.7344 32.5 90.4609 32.6562 90.1562 32.7891C89.8516 32.9297 89.5234 33.0391 89.1719 33.1172C88.8203 33.1953 88.4414 33.2344 88.0352 33.2344C87.3789 33.2344 86.7773 33.1406 86.2305 32.9531C85.6914 32.7578 85.2305 32.4922 84.8477 32.1562C84.457 31.8281 84.1523 31.4336 83.9336 30.9727C83.7227 30.5039 83.6172 30 83.6172 29.4609C83.6172 28.7656 83.7539 28.1523 84.0273 27.6211C84.3086 27.082 84.7148 26.6367 85.2461 26.2852C85.7383 25.957 86.3438 25.707 87.0625 25.5352C87.7891 25.3633 88.6094 25.2773 89.5234 25.2773H91.5625V24.4219C91.5625 24.0938 91.5039 23.7969 91.3867 23.5312C91.2773 23.2656 91.1172 23.0352 90.9062 22.8398C90.6797 22.6445 90.4023 22.4961 90.0742 22.3945C89.7539 22.2852 89.3828 22.2305 88.9609 22.2305C88.5781 22.2305 88.2422 22.2773 87.9531 22.3711C87.6719 22.4648 87.4375 22.5938 87.25 22.7578C87.0625 22.9062 86.9219 23.0898 86.8281 23.3086C86.7422 23.5195 86.6992 23.7461 86.6992 23.9883H83.8867C83.8945 23.4805 84.0156 22.9922 84.25 22.5234C84.4844 22.0547 84.8281 21.6406 85.2812 21.2812C85.7188 20.9141 86.2578 20.625 86.8984 20.4141C87.5469 20.1953 88.2852 20.0859 89.1133 20.0859C89.8555 20.0859 90.5469 20.1797 91.1875 20.3672C91.8359 20.5469 92.3945 20.8164 92.8633 21.1758C93.332 21.5352 93.6992 21.9922 93.9648 22.5469C94.2305 23.0938 94.3633 23.7266 94.3633 24.4453V30.082C94.3633 30.6523 94.4023 31.168 94.4805 31.6289C94.5664 32.082 94.6875 32.4727 94.8438 32.8008V33H91.9844ZM88.5742 30.9844C88.9414 30.9844 89.2812 30.9375 89.5938 30.8438C89.9141 30.75 90.2031 30.6289 90.4609 30.4805C90.7188 30.332 90.9414 30.1641 91.1289 29.9766C91.3164 29.7891 91.4609 29.5938 91.5625 29.3906V27.0469H89.7578C89.1484 27.0469 88.6211 27.1055 88.1758 27.2227C87.7305 27.332 87.375 27.4922 87.1094 27.7031C86.875 27.8828 86.6992 28.0977 86.582 28.3477C86.4727 28.5977 86.418 28.8789 86.418 29.1914C86.418 29.4492 86.4648 29.6914 86.5586 29.918C86.6523 30.1367 86.7891 30.3242 86.9688 30.4805C87.1484 30.6367 87.3711 30.7617 87.6367 30.8555C87.9023 30.9414 88.2148 30.9844 88.5742 30.9844ZM103.926 17.2266V20.3203H108.695V22.418H103.926V28.4766C103.926 28.9453 103.98 29.3398 104.09 29.6602C104.207 29.9727 104.367 30.2188 104.57 30.3984C104.773 30.5859 105.016 30.7188 105.297 30.7969C105.578 30.875 105.887 30.9141 106.223 30.9141C106.465 30.9141 106.715 30.9023 106.973 30.8789C107.23 30.8555 107.48 30.8242 107.723 30.7852C107.957 30.7539 108.176 30.7188 108.379 30.6797C108.59 30.6328 108.766 30.5938 108.906 30.5625L109.211 32.4961C109.008 32.6211 108.762 32.7305 108.473 32.8242C108.191 32.9102 107.887 32.9844 107.559 33.0469C107.23 33.1094 106.887 33.1562 106.527 33.1875C106.176 33.2266 105.824 33.2461 105.473 33.2461C104.832 33.2461 104.242 33.1602 103.703 32.9883C103.172 32.8086 102.715 32.5312 102.332 32.1562C101.949 31.7891 101.648 31.3164 101.43 30.7383C101.219 30.1602 101.113 29.4648 101.113 28.6523V22.418H98.043V20.3203H101.113V17.2266H103.926Z" fill="#7790ED"/>
</svg>
